<?xml version="1.0" encoding="utf-8"?>
<!-- Generator: Adobe Illustrator 24.0.2, SVG Export Plug-In . SVG Version: 6.00 Build 0)  -->
<svg version="1.1" id="Warstwa_2" xmlns="http://www.w3.org/2000/svg" xmlns:xlink="http://www.w3.org/1999/xlink" x="0px" y="0px"
	 viewBox="0 0 1398.7703857 1011.4678345" style="enable-background:new 0 0 1398.7703857 1011.4678345;" xml:space="preserve">
<style type="text/css">
	.st0{fill:#0FABE3;stroke:#000000;stroke-width:6.534523;stroke-miterlimit:10;}
	.st1{fill:none;stroke:#000000;stroke-width:6.534523;stroke-miterlimit:10;}
	.st2{fill:#F9F9F7;stroke:#000000;stroke-width:6.534523;stroke-miterlimit:10;}
</style>
<g>
	<g>
		<path class="st0" d="M410.8533936,412.8702698c0,0-98.4624634-76.1399536-119.7601318-144.2152405
			c-1.9560852-6.2523499-4.8739929-12.1886292-9.052002-17.2346497
			c-8.8897095-10.7366028-25.3450012-22.2537231-47.0572968-0.9593506
			c-10.6378937,10.433136-17.6110229,24.0662231-20.2220154,38.7358398
			c-0.9074402,5.0982971-1.6210327,11.0707703-1.8994598,17.9144897
			c-0.8419952,20.6961975-21.8635406,29.811676-31.2806091,32.8659058
			c-7.635498,2.4764099-14.7331238,6.4561768-20.5236664,12.0152588
			c-5.5575867,5.3354187-11.2832031,12.9636841-14.851593,23.5419617
			c-5.2254181,15.4904175-3.7341309,32.4150391,3.2432556,47.1992798
			c7.7724609,16.4689026,18.0527344,49.1255493-3.8787537,77.9177246
			c-30.8442917,40.493103-18.398201,65.5007935-18.398201,65.5007935s11.4614029,22.4084473,31.6199417,33.9771118
			c20.1585388,11.5687256,0.8691711,65.06073,0.8691711,65.06073s-14.7943268,35.0882568,32.8027954,56.5922852
			c25.7769928,11.645874,55.6214447,8.6913452,78.6074371-7.7927246
			c12.5194092-8.9780884,26.1234131-21.8041992,37.615509-39.8659058c0,0,67.6159363-111.8112183,94.1474304-125.0632324
			L410.8533936,412.8702698z"/>
		<path class="st1" d="M196.6146545,434.9954529l56.4402161,26.954834
			c5.6477966,2.6972961,11.6634216,4.5897217,17.8688965,5.4054565c8.8743896,1.1665955,16.5020447-0.1907959-2.9499207-14.8855896"
			/>
		<path class="st1" d="M340.0369873,390.4661255c0,0-27.7996826-35.9997253-51.6491089-36.9245605
			c-23.8494568-0.9248657,33.1016235,47.5303345,33.1016235,47.5303345s48.6211243,43.0233154,86.8799744,53.9880066"/>
		<path class="st1" d="M238.3655548,510.639801c0,0-8.4414368,59.1117249,39.6936493,38.6977234
			s128.7115784-67.1236572,128.7115784-67.1236572"/>
		<path class="st1" d="M301.517334,611.2591553c0,0-18.2929993,31.0091553-42.0706787,37.5236816
			c-5.8776093,1.6102905-11.0401001-4.1975708-8.7332916-9.8383179
			c3.9845428-9.7432861,14.0252838-25.8399048,39.2227936-47.5751953
			c43.7504883-37.7389526,115.0726013-79.2269287,115.0726013-79.2269287"/>
	</g>
	<g>
		<path class="st0" d="M998.2445679,445.7018433c0,0,26.3284302-71.8132629,91.3699341-91.1398315
			c2.2496338-0.668457,4.5389404-1.1980286,6.8260498-1.7241516c6.8129883-1.5672913,35.6199951-10.9835815,74.5869141-62.989563
			c5.8791504-7.8463745,13.9299316-13.9176636,23.243042-16.982666
			c12.7781982-4.2053833,29.7794189-3.7456665,42.5025635,18.8359985c6.0830078,10.7964478,8.3999023,23.293335,7.2218018,35.629425
			c-2.3291016,24.3899231-3.2191162,76.866394,26.9725342,106.2030029c0.6314697,0.6134949,1.2469482,1.2271118,1.8469238,1.8406677
			c23.5322266,24.0635681,24.9007568,61.9855042,4.2319336,88.5489807
			c-14.0993652,18.1204224-36.1124268,53.6315918-17.4857178,80.2346191
			c0.4656982,0.6651001,0.9160156,1.3248291,1.3514404,1.979187c13.7532959,20.6672974,8.1335449,48.9376221-12.5670166,62.6408081
			c-9.4504395,6.2559204-19.1363525,17.5823975-15.6744385,37.0645142
			c3.5126953,19.7677002-11.7364502,34.126709-25.9493408,42.9736938
			c-9.6859131,6.0291748-22.5217285,2.1266479-27.2155762-8.2722778
			c-3.737793-8.2807007-10.1282959-18.0779419-21.0388184-26.7796631
			c-25.0095215-19.9464111-76.6032715-33.0629883-76.6032715-33.0629883s-83.6849365-39.34021-86.8643799-91.1262817
			L998.2445679,445.7018433z"/>
		<path class="st1" d="M997.072937,497.6408691c0,0,53.5392456-102.7998047,83.4408569-96.9238586
			s-3.3383789,37.9161682-3.3383789,37.9161682"/>
		<path class="st1" d="M996.2191162,535.4920654c0,0,72.0531006-28.8088074,113.8977051-24.1873779
			c2.6075439,0.2879944,5.2039795,0.5972595,7.8189697,0.8063354c7.3768311,0.5898438,24.2408447,3.2402954,18.2498779,15.1137695
			c-2.2244873,4.4089966-6.3183594,7.5844116-11.0499268,8.9989624l-27.5001221,8.2216797"/>
		<path class="st1" d="M995.5294189,554.8956909c0,0,105.9865723,102.6530762,135.0183105,85.1721802
			c29.0318604-17.480835-32.4034424-41.4049072-32.4034424-41.4049072"/>
	</g>
	<g>
		<circle class="st0" cx="701.6600342" cy="510.70047" r="308.4544373"/>
		<path class="st2" d="M682.5055542,202.614212c-216.5291443,369.1791992,3.5618896,616.18396,3.5618896,616.18396
			c-10.6592407-0.5283203-22.3885498-1.6646118-34.9611206-3.7442017
			c-8.3991089-1.3892822-16.2758789-3.0509033-23.5941162-4.8598633
			c-28.8123779-42.2005005-61.7785034-109.0604248-81.3826904-195.5145264
			c-26.1459351-115.3030396-23.2010498-265.6973877,93.1623535-406.0635376
			c5.4765015-1.1105347,11.2015991-2.1356506,17.1644287-3.0398865
			C665.5870972,204.1915894,674.2938843,203.239151,682.5055542,202.614212z"/>
		<path class="st2" d="M900.505127,274.8752441C731.541748,533.376709,884.6010742,759.1491699,884.6010742,759.1491699
			c-7.7023315,5.6745605-16.4150391,11.5369263-26.1624756,17.2805786
			c-7.8087769,4.6012573-15.3446045,8.5743408-22.4692993,12.0088501
			c-22.0465698-40.4421997-45.1434326-99.3781738-56.4703369-172.8277588
			c-15.7539063-102.1558228-6.5452881-235.7954712,93.3048096-361.7307739
			c4.5234375,3.1114655,9.1676025,6.4512482,13.9006958,10.0338593
			C891.5751953,267.6006165,896.1735229,271.2669067,900.505127,274.8752441z"/>
	</g>
</g>
</svg>
